<?xml version="1.0" encoding="utf-8"?>
<!-- Generator: Adobe Illustrator 18.1.1, SVG Export Plug-In . SVG Version: 6.00 Build 0)  -->
<svg version="1.1" id="Layer_1" xmlns="http://www.w3.org/2000/svg" xmlns:xlink="http://www.w3.org/1999/xlink" x="0px" y="0px"
	 viewBox="0 0 447 140.6" enable-background="new 0 0 447 140.6" xml:space="preserve">
<g>
	<path fill="#FFFFFF" d="M447,54.9c0,3.7-1.6,7.2-4.7,10.3c-7,6.9-19.6,11-37.6,12.1c-0.5,2.5-0.9,4-1.1,4.5
		c-0.7,1.1-2.1,1.7-4.1,1.7c-2.7,0-4-0.7-4-2c0-7.4,0.5-11.5,1.5-12.1c0.3-0.2,3.2-0.3,8.8-0.3c11.6,0,19.4-1.7,23.3-5.2
		c3-2.7,4.5-5.3,4.5-8c0-3.9-2.4-7.2-7.3-9.7c-4-2.1-8.2-3.1-12.6-3.1c-3.1,0-6.4,0.9-9.8,2.6c-2.1,1-4.8,2.5-8,4.5
		c-2.4,1.7-3.9,2.6-4.4,2.6c-0.9,0-1.4-0.9-1.4-2.7c0-2.4,0.7-4.4,2.2-5.8c3.1-3,7.4-5.4,12.8-7.3c5.1-1.8,9.9-2.6,14.5-2.6
		c6.5,0,12.6,1.8,18.1,5.3C443.9,43.6,447,48.7,447,54.9z M402.8,95.6c0,0.5-0.3,2-1,4.5c-0.7,2.5-1.1,4-1.4,4.5
		c-0.6,1.1-2.1,1.7-4.4,1.7c-2.5,0-3.8-0.8-3.8-2.4c0-2.8,0.2-5.3,0.7-7.4c0.3-1.5,2.1-2.2,5.6-2.2
		C401.4,94.2,402.8,94.7,402.8,95.6z"/>
</g>
<g>
	<path fill="#FFFFFF" d="M23,37.7c0,0.3-0.2,1.1-0.8,2.4c-0.3,0.9-0.7,1.7-1.1,2.6c-2.2,5.7-3.6,11.8-4.3,18.4c0,1-0.1,2.4-0.5,4.2
		c-0.3,0.8-1.1,1.3-2.6,1.4c-1.5,0.1-2.5-0.2-3.1-1c-0.4-0.6-2.3-5.1-5.6-13.6S0.1,39,0,38.3c-0.1-1.2,0.8-1.9,2.6-2.1
		c0.8-0.1,1.5,0.6,1.9,2c0.3,1.1,0.5,2.1,0.8,3.1c1.6,6,3.9,12.1,7,18.2c0.6-2.2,1.5-5.6,2.7-10.1c0.5-1.9,0.9-3.7,1.4-5.5
		c0.6-2.4,1.2-4.2,1.7-5.4c0.5-1.2,1.4-1.8,2.7-1.9c0.4,0,0.9,0,1.3,0.1C22.7,37,23,37.3,23,37.7z"/>
	<path fill="#FFFFFF" d="M51.9,60.4c0.1,0.6-0.3,1.3-0.9,1.9c-0.7,0.6-1.3,1-2,1c-0.7,0.1-1.4-0.6-2.2-1.9c-0.5-1-1-1.9-1.5-2.9
		c-4.7,1.5-10.5,3.2-17.5,5.1c-0.7,2.2-1.4,3.3-2.1,3.3c-0.7,0.1-1.4-0.3-2.1-1.1c-0.7-0.8-1.1-1.6-1.1-2.3c0-0.4,0.2-1.2,0.8-2.3
		c0.4-0.8,0.8-1.6,1.2-2.3c1.5-3.2,3-7.1,4.4-11.8c1.2-4,2.3-8.1,3.4-12.1c0.4-1.4,1.3-2.1,2.8-2.2c0.7-0.1,1.2,0.2,1.7,0.9
		c0.4,0.6,0.8,1.4,1.2,2.4c0.7,1.6,1,2.4,1.1,2.5c3.2,6.9,6.5,12.8,10,17.6c0.5,0.7,1.1,1.4,1.6,2.1C51.5,59.4,51.9,60.1,51.9,60.4z
		 M42.9,53.9c-1.6-3.2-4.1-7.9-7.4-14.2c-0.9,2.5-2.8,8.8-5.8,18.7C34.6,57.2,39,55.7,42.9,53.9z"/>
	<path fill="#FFFFFF" d="M60.1,60.9c0,0.6-0.3,1-1,1.5c-0.6,0.4-1.3,0.6-1.9,0.6c-1.1,0.1-1.7-0.7-1.8-2.3c0-0.2,0-0.5-0.1-0.9
		c0-0.4,0-0.7,0-0.8l-0.1-0.7c-0.2-1.9-0.6-5.6-1.2-11.3c-0.5-4.7-0.9-8.4-1.1-11.2c-0.2-2.2,1-3.4,3.5-3.6c1-0.1,1.5,0.2,1.6,0.9
		c0.1,0.7,0.1,1.6,0,2.6c-0.1,1.5-0.1,2.4-0.1,2.6c0,3,0.1,6,0.3,9c0.3,3.8,0.7,7.1,1.3,9.9c0,0.1,0.2,0.8,0.5,1.8
		C59.9,59.8,60.1,60.4,60.1,60.9z"/>
	<path fill="#FFFFFF" d="M109.7,43.3c0.1,0.7,0,1.2-0.1,1.7c-0.9,4.3-3.4,8-7.4,11c-3.9,3-8,4.7-12.5,5c-1.7,0.1-3,0-4-0.5
		c-1.3-0.6-2.5-1.7-3.6-3.3s-1.7-3-1.8-4.5c-0.1-1.2,0.2-1.8,0.8-1.8c0.6-0.1,1.2,0.3,1.8,1c0.5,0.6,0.9,1.2,1.3,1.7
		c1.8,2.1,4.7,3,8.7,2.7c2.4-0.2,4.6-0.9,6.5-2c2.2-1.3,3.6-3,4.2-5.1c0.2-0.7,0.3-1.3,0.3-1.8c-0.1-0.7-0.5-1.2-1.3-1.4
		c-2.1-0.6-5.3-0.9-9.5-0.8c-3.3,0.1-6.6,0.3-9.8,0.4c-1.2,0-2-0.2-2.5-0.7c-0.5-0.5-0.8-1.3-0.9-2.4c-0.1-1.3,0.8-3.4,2.8-6
		c4.3-5.8,10-9,17.2-9.5c0.8-0.1,1.4,0,1.8,0.2c0.4,0.2,0.6,0.6,0.7,1.3c0.1,0.4,0.3,1.1,0.6,2.1c0.3,0.9,0.4,1.6,0.5,2.1
		c0,0.5-0.3,1.1-1.2,1.8c-0.8,0.6-1.5,1-2.1,1c-0.6,0-1.2-0.9-1.9-2.9c-0.4,0-0.9,0-1.3,0.1c-4.7,0.4-8.3,2.5-10.8,6.3
		c-0.4,0.7-0.7,1.1-0.6,1.3c0,0.3,1.5,0.3,4.5,0l-0.1,0c2.3-0.2,5.4-0.3,9.3-0.3c4.6,0,7.5,0.2,8.8,0.5
		C109.1,40.8,109.6,41.7,109.7,43.3z"/>
	<path fill="#FFFFFF" d="M147.7,38.4c0.4,4.9-1.2,9.4-4.8,13.4c-3.6,3.9-7.9,6-12.8,6.4c-4.3,0.4-8.1-0.8-11.4-3.5
		c-3.3-2.7-5.1-6.2-5.4-10.5c-0.4-5,1.2-9.4,4.8-13.4c3.5-3.9,7.8-6.1,12.8-6.5c4.3-0.4,8.2,0.8,11.4,3.5
		C145.6,30.6,147.4,34.1,147.7,38.4z M142.2,40.7c-0.3-3.4-1.6-6.4-4.1-8.8c-2.6-2.5-5.5-3.5-8.9-3.3c-3.3,0.3-6,1.8-8.2,4.7
		c-2,2.8-2.8,5.8-2.6,9.2c0.3,3.4,1.7,6.3,4.2,8.7c2.5,2.4,5.5,3.5,8.9,3.2c3.3-0.3,6-1.8,8.1-4.7C141.6,47.1,142.5,44,142.2,40.7z"
		/>
	<path fill="#FFFFFF" d="M178.6,46.3c0.2,2.6-1.9,4.8-6.2,6.7c-2.7,1.1-6.8,1.9-12.5,2.4c-1.3,0.1-2.2,0.2-2.6,0.1
		c-1.1-0.1-1.9-0.4-2.3-0.9c-0.4-0.6-1.2-6.4-2.3-17.4c-0.1,0-0.2,0.1-0.3,0.1c-0.6,0-1-0.2-1.4-0.9c-0.3-0.5-0.5-1.1-0.5-1.7
		c-0.1-1.3,0.7-3.1,2.5-5.4c1.5-1.9,3-3.3,4.4-4.3c2-1.4,4.4-2.2,7-2.5c3.1-0.2,5.6,0.3,7.7,1.7c2.2,1.5,3.5,3.8,3.7,6.8
		c0.2,3-1.5,5.9-5.3,8.6c1.9,0.4,3.6,1.1,5.2,2.1C177.5,43.2,178.5,44.7,178.6,46.3z M172.1,31.8c-0.1-1.6-1.1-2.8-3-3.6
		c-1.5-0.7-3.2-0.9-4.9-0.8c-2.7,0.2-5.4,1.9-8,4.9c0.1,1.5,0.2,3.1,0.3,4.7c0.1,1.1,0.2,2.3,0.3,3.6c7.1-0.8,11.6-2.3,13.5-4.6
		C171.6,34.6,172.2,33.2,172.1,31.8z M174.9,46.7c-0.1-1.3-1.6-2.2-4.4-2.8c-2.2-0.5-4.2-0.6-5.9-0.5c-2.6,0.2-5,1.2-6.9,2.9
		c0.3,1.6,0.6,3.1,0.9,4.4c2.8,0,5.3-0.1,7.3-0.3c3.9-0.3,6.5-0.9,7.6-1.7C174.4,48,174.9,47.3,174.9,46.7z"/>
	<path fill="#FFFFFF" d="M208.2,29c0.3,3.5-1.3,6.6-4.9,9.4c-2.6,2-6,3.7-10.1,4.9c3.9,1.8,7.1,3,9.8,3.4c0.3,0,0.8,0.1,1.4,0.2
		c0.6,0.2,0.9,0.5,0.9,0.9c0,0.4-0.2,0.8-0.6,1.2c-0.4,0.4-0.9,0.6-1.3,0.7c-1.7,0.1-4.1-0.1-7.2-0.8c-2.9-0.6-5.2-1.3-7.1-2.1
		c0.1,0.4,0.2,1.1,0.6,2.1c0.3,0.9,0.4,1.7,0.5,2.2s-0.3,1.1-0.9,1.5c-0.6,0.3-1.1,0.5-1.8,0.6c-0.8,0.1-1.3-0.1-1.6-0.6
		c-0.4-0.6-1.2-6.8-2.3-18.5c-0.5-0.1-1-0.4-1.5-0.9c-0.4-0.5-0.7-1.1-0.7-1.6c0-0.6,0.2-1.4,0.8-2.3c3.9-5.7,8.4-8.8,13.7-9.3
		c3-0.2,5.7,0.4,8.1,1.9C206.6,23.8,208,26.1,208.2,29z M203.8,30.2c-0.1-1.7-1.2-3.1-3.1-4.2c-1.7-0.9-3.5-1.3-5.4-1.1
		c-2.8,0.2-5.5,1.9-8.1,5c0.1,1.6,0.1,3.2,0.3,4.8c0.2,1.9,0.4,3.8,0.6,5.6c7.3-0.8,12-2.5,14-5C203.3,33.5,203.9,31.8,203.8,30.2z"
		/>
	<path fill="#FFFFFF" d="M237.2,30.2c0.1,0.7-0.8,1.2-2.4,1.5c-8.2,1.6-14.4,3.3-18.7,5.1c0.4,3.2,0.9,6.2,1.6,9.1
		c2.3-0.2,5-0.7,8-1.6c2.6-0.8,5.3-1.6,7.9-2.4c0.4-0.1,0.8-0.2,1.1-0.2c1-0.1,1.6,0.3,1.6,1.2c0,0.6-0.1,1.2-0.4,1.8
		c-0.3,0.6-0.7,1.1-1.2,1.4c-2,1.4-4.8,2.5-8.4,3.5c-3.1,0.8-6.1,1.3-9.1,1.5c-1.5,0.1-2.6-0.2-3.1-1c-0.3-0.5-0.9-4.6-1.7-12.2
		c-1.1-0.3-1.7-1-1.8-2.3c-0.1-1.1,0.3-1.9,1.2-2.4l0,0c-0.4-2.5-0.7-5.2-0.9-8c-0.1-1.2-0.1-1.9-0.1-2c0-0.7,0.3-1.3,0.8-1.7
		c0.2-0.2,0.8-0.6,1.8-0.9c1.6-0.6,3.2-1.3,4.7-1.9c1.8-0.7,3.5-1,5-1.2l1.6-0.1c1.4-0.1,2.3-0.2,2.9-0.1c0.9,0.1,1.8,0.5,2.5,1.2
		c0.7,0.7,1.1,1.4,1.2,2c0.1,0.8-0.7,1.4-2.2,1.6c-3.7,0.6-6.1,1.1-7.1,1.3c-1.9,0.5-4.2,1.5-6.7,2.8c0,1.7,0.1,3.6,0.3,5.5
		c5.8-2.2,11.1-3.5,15.9-3.9c0.9-0.1,1.7-0.1,2.2,0c0.7,0,1.4,0.2,2.2,0.7C236.7,29.1,237.2,29.6,237.2,30.2z"/>
	<path fill="#FFFFFF" d="M260.8,18.4c0,0.3-0.2,1.1-0.8,2.4c-0.3,0.9-0.7,1.7-1.1,2.6c-2.2,5.7-3.6,11.8-4.3,18.4
		c0,1-0.1,2.4-0.5,4.2c-0.3,0.8-1.1,1.3-2.6,1.4c-1.5,0.1-2.5-0.2-3.1-1c-0.4-0.6-2.3-5.1-5.6-13.6c-3.3-8.5-5-13.1-5.1-13.8
		c-0.1-1.2,0.8-1.9,2.6-2.1c0.8-0.1,1.5,0.6,1.9,2c0.3,1.1,0.5,2.1,0.8,3.1c1.6,6,3.9,12.1,7,18.2c0.6-2.2,1.5-5.6,2.7-10.1
		c0.5-1.9,0.9-3.7,1.4-5.5c0.6-2.4,1.2-4.2,1.7-5.4c0.5-1.2,1.4-1.8,2.7-1.9c0.4,0,0.9,0,1.3,0.1C260.5,17.8,260.8,18.1,260.8,18.4z
		"/>
	<path fill="#FFFFFF" d="M271.7,43.8c0,0.6-0.3,1-1,1.5c-0.6,0.4-1.3,0.6-1.9,0.6c-1.1,0.1-1.7-0.7-1.8-2.3c0-0.2,0-0.5-0.1-0.9
		c0-0.4,0-0.7,0-0.8l-0.1-0.7c-0.2-1.9-0.6-5.6-1.2-11.3c-0.5-4.7-0.9-8.4-1.1-11.2c-0.2-2.2,1-3.4,3.5-3.6c1-0.1,1.5,0.2,1.6,0.9
		c0.1,0.7,0.1,1.6,0,2.6c-0.1,1.5-0.1,2.4-0.1,2.6c0,3,0.1,6,0.3,9c0.3,3.8,0.7,7.1,1.3,9.9c0,0.1,0.2,0.8,0.5,1.8
		C271.6,42.6,271.7,43.3,271.7,43.8z"/>
	<path fill="#FFFFFF" d="M296,15.6c0,0.3-0.2,1.1-0.8,2.4c-0.3,0.9-0.7,1.7-1.1,2.6c-2.2,5.7-3.6,11.8-4.3,18.4c0,1-0.1,2.4-0.5,4.2
		c-0.3,0.8-1.1,1.3-2.6,1.4c-1.5,0.1-2.5-0.2-3.1-1c-0.4-0.6-2.3-5.1-5.6-13.6c-3.3-8.5-5-13.1-5.1-13.8c-0.1-1.2,0.8-1.9,2.6-2.1
		c0.8-0.1,1.5,0.6,1.9,2c0.3,1.1,0.5,2.1,0.8,3.1c1.6,6,3.9,12.1,7,18.2c0.6-2.2,1.5-5.6,2.7-10.1c0.5-1.9,0.9-3.7,1.4-5.5
		c0.6-2.4,1.2-4.2,1.7-5.4c0.5-1.2,1.4-1.8,2.7-1.9c0.4,0,0.9,0,1.3,0.1C295.7,14.9,296,15.2,296,15.6z"/>
	<path fill="#FFFFFF" d="M325.3,23c0.1,0.7-0.8,1.2-2.4,1.5c-8.2,1.6-14.4,3.3-18.7,5.1c0.4,3.2,0.9,6.2,1.6,9.1
		c2.3-0.2,5-0.7,8-1.6c2.6-0.8,5.3-1.6,7.9-2.4c0.4-0.1,0.8-0.2,1.1-0.2c1-0.1,1.6,0.3,1.6,1.2c0,0.6-0.1,1.2-0.4,1.8
		c-0.3,0.6-0.7,1.1-1.2,1.4c-2,1.4-4.8,2.5-8.4,3.5c-3.1,0.8-6.1,1.3-9.1,1.5c-1.5,0.1-2.6-0.2-3.1-1c-0.3-0.5-0.9-4.6-1.7-12.2
		c-1.1-0.3-1.7-1-1.8-2.3c-0.1-1.1,0.3-1.9,1.2-2.4l0,0c-0.4-2.5-0.7-5.2-0.9-8c-0.1-1.2-0.1-1.9-0.1-2c0-0.7,0.3-1.3,0.8-1.7
		c0.2-0.2,0.8-0.6,1.8-0.9c1.6-0.6,3.2-1.3,4.7-1.9c1.8-0.7,3.5-1,5-1.2l1.6-0.1c1.4-0.1,2.3-0.2,2.9-0.1c0.9,0.1,1.8,0.5,2.5,1.2
		c0.7,0.7,1.1,1.4,1.2,2c0.1,0.8-0.7,1.4-2.2,1.6c-3.7,0.6-6.1,1.1-7.1,1.3c-1.9,0.5-4.2,1.5-6.7,2.8c0,1.7,0.1,3.6,0.3,5.5
		c5.8-2.2,11.1-3.5,15.9-3.9c0.9-0.1,1.7-0.1,2.2,0c0.7,0,1.4,0.2,2.2,0.7C324.8,22,325.3,22.5,325.3,23z"/>
	<path fill="#FFFFFF" d="M354.3,17.2c0.3,3.5-1.3,6.6-4.9,9.4c-2.6,2-6,3.7-10.1,4.9c3.9,1.8,7.1,3,9.8,3.4c0.3,0,0.8,0.1,1.4,0.2
		c0.6,0.2,0.9,0.5,0.9,0.9c0,0.4-0.2,0.8-0.6,1.2c-0.4,0.4-0.9,0.6-1.3,0.7c-1.7,0.1-4.1-0.1-7.2-0.8c-2.9-0.6-5.2-1.3-7.1-2.1
		c0.1,0.4,0.2,1.1,0.6,2.1c0.3,0.9,0.4,1.6,0.5,2.2c0,0.6-0.3,1.1-0.9,1.5c-0.5,0.3-1.2,0.5-1.8,0.6c-0.8,0.1-1.3-0.1-1.6-0.6
		c-0.4-0.6-1.2-6.8-2.3-18.5c-0.5-0.1-1-0.4-1.5-0.9c-0.4-0.5-0.7-1.1-0.7-1.6c0-0.6,0.2-1.4,0.8-2.3c3.9-5.7,8.4-8.8,13.7-9.3
		c3-0.2,5.7,0.4,8.1,1.9C352.6,11.9,354,14.3,354.3,17.2z M349.8,18.4c-0.1-1.7-1.2-3.1-3.1-4.2c-1.7-0.9-3.5-1.3-5.4-1.1
		c-2.8,0.2-5.5,1.9-8.1,5c0.1,1.6,0.1,3.2,0.3,4.8c0.2,1.9,0.4,3.8,0.6,5.6c7.3-0.8,12-2.5,14-5C349.4,21.7,350,20,349.8,18.4z"/>
</g>
<g>
	<g>
		<path fill="#FFFFFF" d="M254.2,90.5c0.3,4.1-0.7,7.7-3.2,10.7c-3.3,4.1-10.6,11-21.8,20.6c9.7-1.9,16.5-3.1,20.5-3.7
			c1.4-0.2,2.2,0.3,2.3,1.6c0.2,1.2-0.2,2.7-1.2,4.6c-0.8,1.7-1.7,3-2.6,3.8c-2.3,2.1-8.7,4.2-19.2,6.3c-3.7,0.7-10.6,1.7-20.7,3.2
			c-3.5,0.5-5.4-0.5-5.7-3c-0.2-1.5-0.1-3.1,0.4-4.6c0.7-3.8,2.8-6.4,6.2-7.9c9.4-3.9,17-8.7,22.8-14.5c5.2-5.2,8.7-9.3,10.5-12.3
			c1-1.8,1.2-4.5,0.6-8.2c-0.7-3.9-2.4-6.6-5.3-8.3c-2.5-1.5-5.4-2-8.8-1.5c-5.4,0.8-9.5,3.5-12.3,8.1c-1.1,1.8-1.8,2.8-2.2,3.2
			c-1,1.1-2.1,1.7-3.3,1.9c-1.1,0.2-1.7-0.6-1.9-2.2c-0.1-0.7-0.1-1.4,0-2.2c0.4-3.2,1.6-6.7,3.5-10.4c1.9-3.7,3.9-6.6,6.1-8.6
			c1.6-1.5,3.8-2.5,6.6-2.9c6.9-1,13.1,0.9,18.6,5.8C250.1,74.9,253.4,81.8,254.2,90.5z"/>
		<path fill="#FFFFFF" d="M322.6,91.2c0.3,2.1-1.3,3.8-4.9,5.1c-1.3,0.5-3.9,1.2-7.9,2.1c-0.1,1.1,0,4,0.4,8.9
			c0.3,3.7,0.2,6.6-0.2,8.8c-0.3,1.4-1.3,2.7-3.1,3.9c-1.6,1.1-3.1,1.7-4.6,1.9c-2.4,0.3-3.8-0.6-4.1-2.8c-0.4-2.5-0.3-5.5,0-9
			c0.3-2,0.7-5,1.2-9c-5.3,1.6-9.7,3.2-13.4,4.7c-1,0.5-3.7,1.8-8.1,3.8c-4,1.9-6.5,2.9-7.5,3.1c-2.9,0.4-4.5-1-5-4.2
			c-0.1-0.4,0.1-1.7,0.5-4c0.4-2.6,0.6-4.2,0.6-4.7c0.1-1,0.2-2.5,0.3-4.6c0.2-2.8,0.9-9,2-18.6c0.3-3,0.5-4.8,0.8-5.5
			c1.1-4.4,3.8-6.9,8.1-7.5c2.2-0.3,3.4,0.4,3.7,2.3c0.2,1.3-0.2,4.2-1.1,8.7c-0.5,2.1-1.1,5.2-1.9,9.4c-0.6,3.1-1.1,7.6-1.6,13.5
			c8.2-3.6,16.1-6.3,23.8-8.2c0.8-9.2,1.6-16.6,2.2-22.2c0.3-2.2,0.5-3.7,0.8-4.4c0.4-1.6,1.3-3,2.7-4.1c1.4-1.1,3-1.8,4.7-2.1
			c2.4-0.3,3.7,0.4,3.9,2.2c0.1,0.9-0.1,2.8-0.8,5.5c-1.6,7.1-2.8,14.8-3.5,23c1.7-0.3,2.9-0.6,3.6-0.7c1.7-0.2,3.4,0.1,5.1,0.9
			C321.3,88.3,322.4,89.5,322.6,91.2z"/>
		<path fill="#FFFFFF" d="M385.6,46.1c0,0.3,0,0.6,0,1c-1.4,5.1-2.7,11.9-4,20.3c3,1,4.7,2.5,5,4.6c0.2,1.5-0.5,2.8-2,3.8
			c-1.2,0.8-2.6,1.3-4.4,1.6c-1,8.9-1.5,15.5-1.5,19.9c0,1.4,0.1,3.6,0.2,6.5c-0.2,1.9-1.1,3.5-2.8,4.9c-1.4,1.3-3.2,2.1-5.2,2.4
			c-2.4,0.3-3.8-0.5-4.1-2.5c-0.3-1.9-0.2-4.3,0.2-7.1c0.3-1.6,0.5-4,0.9-7.2c0.2-1.3,0.5-5.9,1.2-14c-9.7,2.8-18.5,6.2-26.4,10.2
			c-0.5,7-0.6,13.4-0.3,19.1c0.2,2.2,0.1,3.7-0.2,4.7c-0.4,1.2-1.5,2.4-3.2,3.5c-1.5,1-2.9,1.6-4.4,1.8c-2.4,0.3-3.7-0.6-4-2.7
			c-0.1-0.7-0.1-2,0.1-4.1c0.5-4.8,1-13.1,1.5-24.9c0.5-10.6,1.1-18.8,1.7-24.8c0.3-2.2,0.6-3.7,1-4.6c0.6-1.5,1.7-2.9,3.4-3.9
			c1.5-1,3.2-1.6,4.9-1.9c2.5-0.4,3.9,0.4,4.2,2.4c0.1,1,0,2.6-0.4,4.8c-1.2,5.8-2.2,11.6-2.9,17.4c8.8-3.9,17.5-6.8,26.1-8.6
			c0.5-5.9,1.2-11.2,1.9-16c0.8-5.1,4-8.1,9.6-8.9C384,43.5,385.4,44.2,385.6,46.1z"/>
	</g>
</g>
<g>
	<path fill="#8F191C" d="M250,86.6c0.3,4.1-0.7,7.7-3.2,10.7c-3.3,4.1-10.6,11-21.8,20.6c9.7-1.9,16.5-3.1,20.5-3.7
		c1.4-0.2,2.2,0.3,2.3,1.6c0.2,1.2-0.2,2.7-1.2,4.6c-0.8,1.7-1.7,3-2.6,3.8c-2.3,2.1-8.7,4.2-19.2,6.3c-3.7,0.7-10.6,1.7-20.7,3.2
		c-3.5,0.5-5.4-0.5-5.7-3c-0.2-1.5-0.1-3.1,0.4-4.6c0.7-3.8,2.8-6.4,6.2-7.9c9.4-3.9,17-8.7,22.8-14.5c5.2-5.2,8.7-9.3,10.5-12.3
		c1-1.8,1.2-4.5,0.6-8.2c-0.7-3.9-2.4-6.6-5.3-8.3c-2.5-1.5-5.4-2-8.8-1.5c-5.4,0.8-9.5,3.5-12.3,8.1c-1.1,1.8-1.8,2.8-2.2,3.2
		c-1,1.1-2.1,1.7-3.3,1.9c-1.1,0.2-1.7-0.6-1.9-2.2c-0.1-0.7-0.1-1.4,0-2.2c0.4-3.2,1.6-6.7,3.5-10.4c1.9-3.7,3.9-6.6,6.1-8.6
		c1.6-1.5,3.8-2.5,6.6-2.9c6.9-1,13.1,0.9,18.6,5.8C245.8,71.1,249.1,78,250,86.6z"/>
	<path fill="#8F191C" d="M318.3,87.4c0.3,2.1-1.3,3.8-4.9,5.1c-1.3,0.5-3.9,1.2-7.9,2.1c-0.1,1.1,0,4,0.4,8.9
		c0.3,3.7,0.2,6.6-0.2,8.8c-0.3,1.4-1.3,2.7-3.1,3.9c-1.6,1.1-3.1,1.7-4.6,1.9c-2.4,0.3-3.8-0.6-4.1-2.8c-0.4-2.5-0.3-5.5,0-9
		c0.3-2,0.7-5,1.2-9c-5.3,1.6-9.7,3.2-13.4,4.7c-1,0.5-3.7,1.8-8.1,3.8c-4,1.9-6.5,2.9-7.5,3.1c-2.9,0.4-4.5-1-5-4.2
		c-0.1-0.4,0.1-1.7,0.5-4c0.4-2.6,0.6-4.2,0.6-4.7c0.1-1,0.2-2.5,0.3-4.6c0.2-2.8,0.9-9,2-18.6c0.3-3,0.5-4.8,0.8-5.5
		c1.1-4.4,3.8-6.9,8.1-7.5c2.2-0.3,3.4,0.4,3.7,2.3c0.2,1.3-0.2,4.2-1.1,8.7c-0.5,2.1-1.1,5.2-1.9,9.4c-0.6,3.1-1.1,7.6-1.6,13.5
		c8.2-3.6,16.1-6.3,23.8-8.2c0.8-9.2,1.6-16.6,2.2-22.2c0.3-2.2,0.5-3.7,0.8-4.4c0.4-1.6,1.3-3,2.7-4.1c1.4-1.1,3-1.8,4.7-2.1
		c2.4-0.3,3.7,0.4,3.9,2.2c0.1,0.9-0.1,2.8-0.8,5.5c-1.6,7.1-2.8,14.8-3.5,23c1.7-0.3,2.9-0.6,3.6-0.7c1.7-0.2,3.4,0.1,5.1,0.9
		C317,84.5,318.1,85.7,318.3,87.4z"/>
	<path fill="#8F191C" d="M381.3,42.2c0,0.3,0,0.6,0,1c-1.4,5.1-2.7,11.9-4,20.3c3,1,4.7,2.5,5,4.6c0.2,1.5-0.5,2.8-2,3.8
		c-1.2,0.8-2.6,1.3-4.4,1.6c-1,8.9-1.5,15.5-1.5,19.9c0,1.4,0.1,3.6,0.2,6.5c-0.2,1.9-1.1,3.5-2.8,4.9c-1.4,1.3-3.2,2.1-5.2,2.4
		c-2.4,0.3-3.8-0.5-4.1-2.5c-0.3-1.9-0.2-4.3,0.2-7.1c0.3-1.6,0.5-4,0.9-7.2c0.2-1.3,0.5-5.9,1.2-14c-9.7,2.8-18.5,6.2-26.4,10.2
		c-0.5,7-0.6,13.4-0.3,19.1c0.2,2.2,0.1,3.7-0.2,4.7c-0.4,1.2-1.5,2.4-3.2,3.5c-1.5,1-2.9,1.6-4.4,1.8c-2.4,0.3-3.7-0.6-4-2.7
		c-0.1-0.7-0.1-2,0.1-4.1c0.5-4.8,1-13.1,1.5-24.9c0.5-10.6,1.1-18.8,1.7-24.8c0.3-2.2,0.6-3.7,1-4.6c0.6-1.5,1.7-2.9,3.4-3.9
		c1.5-1,3.2-1.6,4.9-1.9c2.5-0.4,3.9,0.4,4.2,2.4c0.1,1,0,2.6-0.4,4.8c-1.2,5.8-2.2,11.6-2.9,17.4c8.8-3.9,17.5-6.8,26.1-8.6
		c0.5-5.9,1.2-11.2,1.9-16c0.8-5.1,4-8.1,9.6-8.9C379.7,39.7,381.1,40.4,381.3,42.2z"/>
</g>
<g>
	<path fill="#8F191C" d="M443.6,51.6c0,3.7-1.6,7.2-4.7,10.3c-7,6.9-19.6,11-37.6,12.1c-0.5,2.5-0.9,4-1.1,4.5
		c-0.7,1.1-2.1,1.7-4.1,1.7c-2.7,0-4-0.7-4-2c0-7.4,0.5-11.5,1.5-12.1c0.3-0.2,3.2-0.3,8.8-0.3c11.6,0,19.4-1.7,23.3-5.2
		c3-2.7,4.5-5.3,4.5-8c0-3.9-2.4-7.2-7.3-9.7c-4-2.1-8.2-3.1-12.6-3.1c-3.1,0-6.4,0.9-9.8,2.6c-2.1,1-4.8,2.5-8,4.5
		c-2.4,1.7-3.9,2.6-4.4,2.6c-0.9,0-1.4-0.9-1.4-2.7c0-2.4,0.7-4.4,2.2-5.8c3.1-3,7.4-5.4,12.8-7.3c5.1-1.8,9.9-2.6,14.5-2.6
		c6.5,0,12.6,1.8,18.1,5.3C440.6,40.3,443.6,45.4,443.6,51.6z M399.4,92.2c0,0.5-0.3,2-1,4.5s-1.1,4-1.4,4.5
		c-0.6,1.1-2.1,1.7-4.4,1.7c-2.5,0-3.8-0.8-3.8-2.4c0-2.8,0.2-5.3,0.7-7.4c0.3-1.5,2.1-2.2,5.6-2.2C398,90.9,399.4,91.3,399.4,92.2z
		"/>
</g>
</svg>
