<?xml version="1.0" encoding="utf-8"?>
<!-- Generator: Adobe Illustrator 18.1.1, SVG Export Plug-In . SVG Version: 6.00 Build 0)  -->
<svg version="1.1" id="Layer_1" xmlns="http://www.w3.org/2000/svg" xmlns:xlink="http://www.w3.org/1999/xlink" x="0px" y="0px"
	 viewBox="97.3 44.1 416.8 526.9" enable-background="new 97.3 44.1 416.8 526.9" xml:space="preserve">
<polygon fill="#760E12" points="181.7,532.2 139.1,532.2 139.1,474.3 105.2,474.3 105.2,621.7 139.1,621.7 139.1,566.1 181.7,566.1 
	181.7,621.7 215.6,621.7 215.6,474.3 181.7,474.3 "/>
<path fill="#760E12" d="M351.2,495.7c-6.7-6.6-14.5-11.9-23.5-15.8c-9-3.9-18.5-5.8-28.7-5.8c-10.2,0-19.7,1.9-28.7,5.8
	c-9,3.9-16.7,9.1-23.4,15.8c-6.6,6.6-11.9,14.4-15.7,23.4c-3.9,9-5.8,18.5-5.8,28.7c0,10.2,1.9,19.7,5.8,28.7
	c3.9,9,9.1,16.8,15.7,23.4c6.6,6.6,14.4,11.9,23.4,15.8c9,3.9,18.5,5.8,28.7,5.8c10.2,0,19.7-1.9,28.7-5.8c9-3.9,16.8-9.1,23.5-15.8
	c6.7-6.6,12-14.4,15.8-23.4c3.9-9,5.8-18.5,5.8-28.7c0-10.2-1.9-19.7-5.8-28.7C363.2,510.2,357.9,502.4,351.2,495.7z M335.8,563.3
	c-2.1,4.8-4.9,9-8.5,12.7c-3.6,3.6-7.8,6.5-12.7,8.5c-4.8,2.1-10,3.1-15.5,3.1c-5.5,0-10.6-1-15.5-3.1c-4.8-2.1-9-4.9-12.7-8.5
	c-3.6-3.6-6.5-7.8-8.5-12.7c-2.1-4.8-3.1-10-3.1-15.5c0-5.5,1-10.6,3.1-15.5c2.1-4.8,4.9-9,8.5-12.7c3.6-3.6,7.8-6.5,12.7-8.5
	c4.8-2.1,10-3.1,15.5-3.1c5.5,0,10.6,1,15.5,3.1c4.8,2.1,9,4.9,12.7,8.5c3.6,3.6,6.5,7.8,8.5,12.7c2.1,4.8,3.1,10,3.1,15.5
	C338.9,553.3,337.9,558.5,335.8,563.3z"/>
<polygon fill="#760E12" points="465.8,560.5 417.8,474.7 380.9,474.7 380.9,621.7 414.8,621.7 414.8,535.8 463,621.7 499.8,621.7 
	499.8,474.3 465.8,474.3 "/>
<path fill="#760E12" d="M383,333.5V60.9h-55L216.3,226.2v56.6h114.9v50.7H383z M275.4,231.1l55.9-82.4v82.4H275.4z"/>
<g>
	<polygon fill="#760E12" points="216.3,275.3 220.3,275.3 220.3,220.4 216.3,226.2 	"/>
	<polygon fill="#760E12" points="202.2,275.3 202.2,221.9 220.3,195.1 220.3,120.1 184.6,120.1 184.6,181 139.7,181 139.7,120.1 
		104,120.1 104,275.3 139.7,275.3 139.7,216.7 184.6,216.7 184.6,275.3 	"/>
</g>
<g>
	<path fill="#760E12" d="M381.2,167.6c-3.9,9.4-5.8,19.3-5.8,29.9c0,10.4,1.9,20.3,5.8,29.7c0.5,1.2,1.1,2.4,1.7,3.6V164
		C382.4,165.2,381.8,166.4,381.2,167.6z"/>
	<path fill="#760E12" d="M468.9,236.3c-5.2,2-10.5,3.1-15.9,3.1c-5.4,0-10.6-1-15.7-3.1c-5.1-2-9.8-5.1-13.8-9.2
		c-3.9-4.1-7-8.6-9.1-13.6c-2.1-5-3.2-10.3-3.2-16c0-5.6,1.1-11,3.2-16.1s5.1-9.7,9.1-13.7c4.1-4.1,8.7-7.2,13.8-9.2
		c5.1-2,10.4-3.1,15.7-3.1c5.4,0,10.6,1,15.9,3.1c5.2,2,9.9,5.1,14,9.2l25.2-25.2c-7.6-7.6-16.2-13.3-25.7-17.1
		c-9.5-3.8-19.2-5.7-29.2-5.7c-9.9,0-19.7,1.9-29.3,5.7c-9.6,3.8-18.2,9.5-25.8,17.1c-0.3,0.3-0.6,0.7-0.9,1v107.9
		c0.3,0.3,0.6,0.7,0.9,1c7.6,7.6,16.2,13.3,25.7,17c9.5,3.7,19.3,5.6,29.3,5.6c10.1,0,19.9-1.9,29.4-5.6c9.4-3.7,18-9.4,25.6-17
		l-25.2-25.4C478.7,231.2,474.1,234.3,468.9,236.3z"/>
</g>
<g>
	<polygon fill="#760E12" points="341.3,288.9 331.3,288.9 331.3,333.5 355.6,333.5 	"/>
	<path fill="#760E12" d="M317.1,347.6V297H301l-53.1,156l-80.2-78.1l79.8-77.9h-45.3v-8.3h-3.1L143.5,343v-54.3H104v172.2h39.6
		v-54.1l55.3,54.1h46.4H256h31.2l7-20.9h54.1l6.8,20.9h41.7l-36.6-113.2H317.1z M307.8,400.4l14.3-41.7l13.6,41.7H307.8z"/>
</g>
<polygon fill="#760E12" points="400.5,288.2 400.5,327.8 433.3,327.8 433.3,460.9 472.9,460.9 472.9,327.8 506,327.8 506,288.2 "/>
<path fill="#231F20" d="M397.1,347.6h-80V297H202.2v-75.1L320.4,46.7h76.7V347.6z M331.3,333.5H383V60.9h-55L216.3,226.2v56.6h114.9
	V333.5z"/>
</svg>
