<?xml version="1.0" encoding="utf-8"?>
<!-- Generator: Adobe Illustrator 18.1.1, SVG Export Plug-In . SVG Version: 6.00 Build 0)  -->
<svg version="1.1" id="Layer_1" xmlns="http://www.w3.org/2000/svg" xmlns:xlink="http://www.w3.org/1999/xlink" x="0px" y="0px"
	 viewBox="97.3 44.1 416.8 526.9" enable-background="new 97.3 44.1 416.8 526.9" xml:space="preserve">
<path fill="#900000" d="M511,172.6L461.4,120l-0.6-64.3c0-6.7-5.5-11.6-12.2-11.6H164c-6.7,0-12.2,5.5-12.2,11.6V120L101,172.6l0,0
	c-0.6,0.6-1.2,1.2-1.8,2.4c0,0,0,0.6-0.6,0.6c-0.6,0.6-0.6,1.8-1.2,3.1v0.6c0,0.6,0,1.2,0,1.8v402.1c0,6.7,5.5,11.6,12.2,11.6h285.8
	h106.5c6.7,0,12.2-5.5,12.2-11.6V181.2C514.1,178.1,512.9,175.1,511,172.6z M383.7,262.6L121.8,369.1V192.8h261.3v69.8H383.7z
	 M437,68l0.6,45.3H175.6V68H437z M168.9,137.1h252.1l-30.6,31.8H138.3L168.9,137.1z M121.8,501.9l261.3-106.5V571H121.8V501.9z
	 M490.2,571h-82.6V185.5l41.6-43.5l41,43.5V571z"/>
<g>
	<path d="M179.3,421.3c0.6,1.5,0.4,3-0.7,4.6c-1.5,2-4.3,4.5-8.3,7.2c-3.7,2.5-6.9,4.3-9.7,5.5c-2.6,1.1-4.4,1.2-5.4,0.4
		c-0.6-0.5-2.9-5-6.6-13.3c-3.1-6.7-5.3-11.7-6.7-14.9c-0.9-2.1-1.3-3.5-1.3-4.3c-0.1-1.5,0.7-2.7,2.4-3.4c1.2-0.5,1.9-0.3,2.2,0.5
		c-0.1-0.1,0.5,1.5,1.7,5c1,3,2.1,5.9,3.2,8.6c2.4,5.8,5,10.8,7.7,15.1c3.1-1.3,5.9-2.7,8.4-4.4c0.5-0.3,2.3-1.7,5.4-4
		c2.7-2,4.4-3.1,5.1-3.4C178.1,420,178.9,420.2,179.3,421.3z"/>
	<path d="M220.7,387.8c0.3,0.8-0.5,1.7-2.4,2.8c-9.3,5.2-16.2,9.8-20.7,13.6c1.7,3.7,3.5,7.2,5.6,10.5c2.8-1.2,5.8-2.8,9.1-5.1
		c2.9-2,5.8-4,8.6-6c0.5-0.3,0.9-0.6,1.3-0.7c1.2-0.5,2-0.2,2.5,0.8c0.3,0.7,0.3,1.5,0.2,2.4c-0.2,0.9-0.5,1.7-0.9,2.2
		c-1.9,2.5-4.8,5-8.8,7.6c-3.4,2.2-6.9,4-10.4,5.5c-1.8,0.8-3.2,0.8-4.2,0c-0.6-0.5-2.9-5.2-7-14.2c-1.4,0.1-2.4-0.6-3-2.1
		c-0.6-1.3-0.4-2.5,0.6-3.4l0,0c-1.5-2.9-2.9-6.1-4.3-9.4c-0.6-1.4-0.9-2.2-0.9-2.3c-0.2-0.9-0.2-1.7,0.3-2.4c0.2-0.4,0.8-1,1.9-1.9
		c1.7-1.4,3.3-2.8,5-4.2c2-1.5,3.8-2.6,5.6-3.4l1.9-0.8c1.6-0.7,2.8-1.1,3.4-1.2c1.2-0.2,2.4-0.1,3.5,0.5c1.2,0.6,1.9,1.2,2.2,1.9
		c0.4,1-0.2,2-2,2.9c-4.3,2.2-7,3.7-8.1,4.4c-2.2,1.4-4.5,3.4-7,6c0.7,2.1,1.5,4.3,2.5,6.6c6.2-5,12.1-8.7,17.7-11.1
		c1.1-0.5,2-0.8,2.6-0.9c0.8-0.2,1.8-0.3,2.9-0.1C219.6,386.7,220.4,387.2,220.7,387.8z"/>
	<path d="M256,359c0.1,0.4,0.2,0.6,0.2,0.9c-0.1,0.6-0.8,1.3-2.2,2c-2.9,1.5-5.4,2.8-7.6,3.9c1.2,3.5,2.4,6.9,3.8,10.1
		c2.3,5.6,5,10.8,7.9,15.6c0.2-0.1,1.4-1.1,3.7-2.9c1.5-1.2,2.8-2,3.9-2.5c0.9-0.4,1.5-0.2,1.8,0.5c0.2,0.6,0.3,1.3,0.1,2.2
		c-0.1,0.9-0.4,1.6-0.8,2.1c-1.3,1.8-3.7,3.9-7.1,6.1c-3,2-5.7,3.5-8.3,4.6c-1.4,0.6-2.5,0.9-3.3,0.8c-1.1-0.1-1.9-0.8-2.4-2.1
		c-0.7-1.6,0-2.8,2-3.6c0.3-0.1,0.7-0.3,1.4-0.5c0.6-0.2,1-0.4,1.3-0.5c1.2-0.5,2.2-1,3-1.4c-2.8-5.5-6.6-13.8-11.4-25.1
		c-2.7,2.8-4.3,4.3-4.8,4.5c-0.7,0.3-1.5,0.1-2.4-0.7c-0.6-0.6-1.1-1.3-1.5-2.1c-0.7-1.6-0.6-2.9,0.3-4c2.8-3.7,7-6.7,12.5-9
		c2.1-0.9,3.7-1.3,4.8-1.4c1.8-0.2,3.3,0.3,4.5,1.5C255.6,358.3,255.9,358.6,256,359z"/>
	<path d="M300,341.1c0.1,0.4,0.2,0.7,0.1,1c-0.2,0.7-1.1,1.4-2.7,2.2c-3.1,1.5-6.1,2.9-8.8,4.4c1.3,3.7,2.6,7.2,3.9,10.4
		c2.3,5.6,4.8,10.4,7.4,14.6c1.5,2.4,2.3,3.6,2.3,3.8c0.2,0.6,0,1.3-0.8,2.2c-0.6,0.7-1.3,1.2-2,1.5c-0.8,0.3-1.5,0.3-2-0.2
		c-0.9-0.9-5.4-10.6-13.4-29.2c-1.1,1.1-2.3,2.1-3.5,3.2c-1.7,1.5-2.9,2.4-3.5,2.7c-0.9,0.4-1.7,0.2-2.7-0.4
		c-0.8-0.5-1.4-1.3-1.7-2.2c-0.7-1.6-0.5-2.9,0.6-4.1c3.6-4,8.9-7.4,15.9-10.4c2.2-0.9,3.9-1.4,5.1-1.6c2-0.3,3.7,0.2,5,1.3
		C299.7,340.5,299.9,340.8,300,341.1z"/>
	<path d="M351.5,333.2c0.3,0.8-0.5,1.7-2.4,2.8c-9.3,5.2-16.2,9.8-20.7,13.6c1.7,3.7,3.5,7.2,5.6,10.5c2.8-1.2,5.8-2.8,9.1-5.1
		c2.9-2,5.8-4,8.6-6c0.5-0.3,0.9-0.6,1.3-0.7c1.2-0.5,2-0.2,2.5,0.8c0.3,0.7,0.3,1.5,0.2,2.4c-0.2,0.9-0.5,1.7-0.9,2.2
		c-1.9,2.5-4.8,5-8.8,7.6c-3.4,2.2-6.9,4-10.4,5.5c-1.8,0.8-3.2,0.8-4.2,0c-0.6-0.5-2.9-5.2-7-14.2c-1.4,0.1-2.4-0.6-3-2.1
		c-0.6-1.3-0.4-2.5,0.6-3.4l0,0c-1.5-2.9-2.9-6.1-4.3-9.4c-0.6-1.4-0.9-2.2-0.9-2.3c-0.2-0.9-0.2-1.7,0.2-2.4c0.2-0.4,0.8-1,1.9-1.9
		c1.7-1.4,3.3-2.8,5-4.2c2-1.5,3.8-2.6,5.6-3.4l1.9-0.8c1.6-0.7,2.8-1.1,3.4-1.2c1.2-0.2,2.4-0.1,3.5,0.5c1.2,0.6,1.9,1.2,2.2,1.9
		c0.4,1-0.2,2-2,2.9c-4.3,2.2-7,3.7-8.1,4.4c-2.2,1.4-4.5,3.4-7,6c0.7,2.1,1.5,4.3,2.5,6.6c6.2-5,12.1-8.7,17.7-11.1
		c1.1-0.5,2-0.8,2.6-0.9c0.8-0.2,1.8-0.3,2.9-0.1C350.5,332.1,351.2,332.5,351.5,333.2z"/>
</g>
</svg>
