<?xml version="1.0" encoding="utf-8"?>
<!-- Generator: Adobe Illustrator 18.1.1, SVG Export Plug-In . SVG Version: 6.00 Build 0)  -->
<svg version="1.1" id="Layer_1" xmlns="http://www.w3.org/2000/svg" xmlns:xlink="http://www.w3.org/1999/xlink" x="0px" y="0px"
	 viewBox="97.4 53.3 611.9 773.7" enable-background="new 97.4 53.3 611.9 773.7" xml:space="preserve">
<path fill="#760E12" d="M704.7,241.9l-72.8-77.2L631,70.3c0-9.8-8.1-17-17.9-17H195.2c-9.8,0-17.9,8.1-17.9,17v94.4l-74.6,77.2l0,0
	c-0.9,0.9-1.8,1.8-2.6,3.5c0,0,0,0.9-0.9,0.9c-0.9,0.9-0.9,2.6-1.8,4.6v0.9c0,0.9,0,1.8,0,2.6v590.4c0,9.8,8.1,17,17.9,17H535h156.4
	c9.8,0,17.9-8.1,17.9-17V254.6C709.3,250,707.5,245.6,704.7,241.9z M517.8,374.1L133.3,530.5V271.6h383.7v102.5H517.8z M596.1,88.4
	l0.9,66.5H212.3V88.4H596.1z M202.4,189.8h370.2l-44.9,46.7H157.5L202.4,189.8z M133.3,725.5l383.7-156.4v257.8H133.3V725.5z
	 M674.2,826.9H552.9v-566L614,197l60.2,63.9V826.9z"/>
<g>
	<path d="M217.7,607.1c0.9,2.2,0.6,4.4-1,6.8c-2.2,2.9-6.3,6.6-12.2,10.6c-5.4,3.7-10.1,6.3-14.2,8.1c-3.8,1.6-6.5,1.8-7.9,0.6
		c-0.9-0.7-4.3-7.3-9.7-19.5c-4.6-9.8-7.8-17.2-9.8-21.9c-1.3-3.1-1.9-5.1-1.9-6.3c-0.1-2.2,1-4,3.5-5c1.8-0.7,2.8-0.4,3.2,0.7
		c-0.1-0.1,0.7,2.2,2.5,7.3c1.5,4.4,3.1,8.7,4.7,12.6c3.5,8.5,7.3,15.9,11.3,22.2c4.6-1.9,8.7-4,12.3-6.5c0.7-0.4,3.4-2.5,7.9-5.9
		c4-2.9,6.5-4.6,7.5-5C215.9,605.2,217.1,605.5,217.7,607.1z"/>
	<path d="M278.5,557.9c0.4,1.2-0.7,2.5-3.5,4.1c-13.7,7.6-23.8,14.4-30.4,20c2.5,5.4,5.1,10.6,8.2,15.4c4.1-1.8,8.5-4.1,13.4-7.5
		c4.3-2.9,8.5-5.9,12.6-8.8c0.7-0.4,1.3-0.9,1.9-1c1.8-0.7,2.9-0.3,3.7,1.2c0.4,1,0.4,2.2,0.3,3.5c-0.3,1.3-0.7,2.5-1.3,3.2
		c-2.8,3.7-7,7.3-12.9,11.2c-5,3.2-10.1,5.9-15.3,8.1c-2.6,1.2-4.7,1.2-6.2,0c-0.9-0.7-4.3-7.6-10.3-20.9c-2.1,0.1-3.5-0.9-4.4-3.1
		c-0.9-1.9-0.6-3.7,0.9-5l0,0c-2.2-4.3-4.3-9-6.3-13.8c-0.9-2.1-1.3-3.2-1.3-3.4c-0.3-1.3-0.3-2.5,0.4-3.5c0.3-0.6,1.2-1.5,2.8-2.8
		c2.5-2.1,4.8-4.1,7.3-6.2c2.9-2.2,5.6-3.8,8.2-5l2.8-1.2c2.3-1,4.1-1.6,5-1.8c1.8-0.3,3.5-0.1,5.1,0.7c1.8,0.9,2.8,1.8,3.2,2.8
		c0.6,1.5-0.3,2.9-2.9,4.3c-6.3,3.2-10.3,5.4-11.9,6.5c-3.2,2.1-6.6,5-10.3,8.8c1,3.1,2.2,6.3,3.7,9.7c9.1-7.3,17.8-12.8,26-16.3
		c1.6-0.7,2.9-1.2,3.8-1.3c1.2-0.3,2.6-0.4,4.3-0.1C276.9,556.3,278.1,557.1,278.5,557.9z"/>
	<path d="M330.3,515.6c0.1,0.6,0.3,0.9,0.3,1.3c-0.1,0.9-1.2,1.9-3.2,2.9c-4.3,2.2-7.9,4.1-11.2,5.7c1.8,5.1,3.5,10.1,5.6,14.8
		c3.4,8.2,7.3,15.9,11.6,22.9c0.3-0.1,2.1-1.6,5.4-4.3c2.2-1.8,4.1-2.9,5.7-3.7c1.3-0.6,2.2-0.3,2.6,0.7c0.3,0.9,0.4,1.9,0.1,3.2
		c-0.1,1.3-0.6,2.3-1.2,3.1c-1.9,2.6-5.4,5.7-10.4,9c-4.4,2.9-8.4,5.1-12.2,6.8c-2.1,0.9-3.7,1.3-4.8,1.2c-1.6-0.1-2.8-1.2-3.5-3.1
		c-1-2.3,0-4.1,2.9-5.3c0.4-0.1,1-0.4,2.1-0.7c0.9-0.3,1.5-0.6,1.9-0.7c1.8-0.7,3.2-1.5,4.4-2.1c-4.1-8.1-9.7-20.3-16.7-36.9
		c-4,4.1-6.3,6.3-7,6.6c-1,0.4-2.2,0.1-3.5-1c-0.9-0.9-1.6-1.9-2.2-3.1c-1-2.3-0.9-4.3,0.4-5.9c4.1-5.4,10.3-9.8,18.4-13.2
		c3.1-1.3,5.4-1.9,7-2.1c2.6-0.3,4.8,0.4,6.6,2.2C329.7,514.6,330.2,515.1,330.3,515.6z"/>
	<path d="M394.9,489.4c0.1,0.6,0.3,1,0.1,1.5c-0.3,1-1.6,2.1-4,3.2c-4.6,2.2-9,4.3-12.9,6.5c1.9,5.4,3.8,10.6,5.7,15.3
		c3.4,8.2,7,15.3,10.9,21.4c2.2,3.5,3.4,5.3,3.4,5.6c0.3,0.9,0,1.9-1.2,3.2c-0.9,1-1.9,1.8-2.9,2.2c-1.2,0.4-2.2,0.4-2.9-0.3
		c-1.3-1.3-7.9-15.6-19.7-42.9c-1.6,1.6-3.4,3.1-5.1,4.7c-2.5,2.2-4.3,3.5-5.1,4c-1.3,0.6-2.5,0.3-4-0.6c-1.2-0.7-2.1-1.9-2.5-3.2
		c-1-2.3-0.7-4.3,0.9-6c5.3-5.9,13.1-10.9,23.3-15.3c3.2-1.3,5.7-2.1,7.5-2.3c2.9-0.4,5.4,0.3,7.3,1.9
		C394.5,488.5,394.8,488.9,394.9,489.4z"/>
	<path d="M470.5,477.8c0.4,1.2-0.7,2.5-3.5,4.1c-13.7,7.6-23.8,14.4-30.4,20c2.5,5.4,5.1,10.6,8.2,15.4c4.1-1.8,8.5-4.1,13.4-7.5
		c4.3-2.9,8.5-5.9,12.6-8.8c0.7-0.4,1.3-0.9,1.9-1c1.8-0.7,2.9-0.3,3.7,1.2c0.4,1,0.4,2.2,0.3,3.5c-0.3,1.3-0.7,2.5-1.3,3.2
		c-2.8,3.7-7,7.3-12.9,11.2c-5,3.2-10.1,5.9-15.3,8.1c-2.6,1.2-4.7,1.2-6.2,0c-0.9-0.7-4.3-7.6-10.3-20.9c-2.1,0.1-3.5-0.9-4.4-3.1
		c-0.9-1.9-0.6-3.7,0.9-5l0,0c-2.2-4.3-4.3-9-6.3-13.8c-0.9-2.1-1.3-3.2-1.3-3.4c-0.3-1.3-0.3-2.5,0.3-3.5c0.3-0.6,1.2-1.5,2.8-2.8
		c2.5-2.1,4.8-4.1,7.3-6.2c2.9-2.2,5.6-3.8,8.2-5l2.8-1.2c2.3-1,4.1-1.6,5-1.8c1.8-0.3,3.5-0.1,5.1,0.7c1.8,0.9,2.8,1.8,3.2,2.8
		c0.6,1.5-0.3,2.9-2.9,4.3c-6.3,3.2-10.3,5.4-11.9,6.5c-3.2,2.1-6.6,5-10.3,8.8c1,3.1,2.2,6.3,3.7,9.7c9.1-7.3,17.8-12.8,26-16.3
		c1.6-0.7,2.9-1.2,3.8-1.3c1.2-0.3,2.6-0.4,4.3-0.1C469.1,476.1,470.1,476.7,470.5,477.8z"/>
</g>
</svg>
